<svg xmlns="http://www.w3.org/2000/svg" width="1450" height="530" viewBox="0 0 1450 530">
<defs>
  <linearGradient id="geminiGradient" x1="0" y1="0" x2="1" y2="1">
    <stop offset="0" stop-color="#4285f4"/><stop offset="0.48" stop-color="#8b5cf6"/>
    <stop offset="1" stop-color="#e86aa6"/>
  </linearGradient>
  <marker id="arrow" markerWidth="10" markerHeight="10" refX="8" refY="3" orient="auto">
    <path d="M0,0 L0,6 L9,3 z" fill="#25344a"/>
  </marker>
</defs>
<rect width="1450" height="530" fill="#ffffff" />
<text x="725" y="43" text-anchor="middle" font-family="DejaVu Sans, Arial, sans-serif" font-size="29" font-weight="700" fill="#171923">Aligned Event QA Pipeline</text>
<rect x="15" y="72" width="1420" height="430" rx="38" fill="#fff7e3" stroke="#d39b29" stroke-width="2" stroke-dasharray="7 6" />
<text x="145" y="105" text-anchor="middle" font-family="DejaVu Sans, Arial, sans-serif" font-size="13" font-weight="700" fill="#3974a8">1 · PAIRED EVENT FRAMES</text>
<rect x="35" y="145" width="220" height="220" rx="22" fill="#edf3fb" stroke="#536b87" stroke-width="2" />
<text x="145" y="176" text-anchor="middle" font-family="DejaVu Sans, Arial, sans-serif" font-size="17" font-weight="700" fill="#171923">Paired Event frames</text>
<rect x="53" y="193" width="70" height="64" rx="6" fill="#20133f" />
<circle cx="72" cy="212" r="5" fill="#ff5470" />
<circle cx="110" cy="220" r="4" fill="#58c7ff" />
<circle cx="82" cy="248" r="6" fill="#ff5470" />
<circle cx="121" cy="260" r="5" fill="#58c7ff" />
<path d="M 66 268 L 92 227 L 127 268" fill="none" stroke="#b8a8ff" stroke-width="4" />
<text x="186" y="221" text-anchor="middle" font-family="DejaVu Sans, Arial, sans-serif" font-size="14" font-weight="700" fill="#171923"><tspan x="186" dy="0">Day</tspan><tspan x="186" dy="17.5">Event frames</tspan></text>
<rect x="53" y="271" width="70" height="64" rx="6" fill="#20133f" />
<circle cx="72" cy="290" r="5" fill="#ff5470" />
<circle cx="110" cy="298" r="4" fill="#58c7ff" />
<circle cx="82" cy="326" r="6" fill="#ff5470" />
<circle cx="121" cy="338" r="5" fill="#58c7ff" />
<path d="M 66 346 L 92 305 L 127 346" fill="none" stroke="#b8a8ff" stroke-width="4" />
<text x="186" y="299" text-anchor="middle" font-family="DejaVu Sans, Arial, sans-serif" font-size="14" font-weight="700" fill="#171923"><tspan x="186" dy="0">Night</tspan><tspan x="186" dy="17.5">Event frames</tspan></text>
<text x="145" y="355" text-anchor="middle" font-family="DejaVu Sans, Arial, sans-serif" font-size="11" font-weight="600" fill="#5b6878">Cached PNG frames · 1 FPS</text>
<path d="M 255 255 H 405" fill="none" stroke="#25344a" stroke-width="3" marker-end="url(#arrow)" />
<rect x="290" y="87" width="875" height="350" rx="30" fill="#f7f1ff" fill-opacity=".78" stroke="#7c5cc4" stroke-width="2.5" stroke-dasharray="8 6" />
<rect x="523" y="81" width="405" height="31" rx="15" fill="#ffffff" stroke="#7c5cc4" stroke-width="2" />
<text x="726" y="103" text-anchor="middle" font-family="DejaVu Sans, Arial, sans-serif" font-size="15" font-weight="700" fill="#6545ad">ONE GEMINI MEGA-PROMPT · ONE API CALL</text>
<text x="727" y="138" text-anchor="middle" font-family="DejaVu Sans, Arial, sans-serif" font-size="13" font-weight="700" fill="#7255b2">2 · PAIRED DAY/NIGHT EVENT QA</text>
<rect x="405" y="197" width="190" height="116" rx="22" fill="#cfe7ff" />
<polygon points="463.0,228.0 468.2,240.8 481.0,246.0 468.2,251.2 463.0,264.0 457.8,251.2 445.0,246.0 457.8,240.8" fill="url(#geminiGradient)" />
<rect x="493.0" y="229.0" width="42" height="32" rx="5" fill="#fff" stroke="#355070" stroke-width="2" />
<circle cx="504.0" cy="240.0" r="4" fill="#34a853" />
<circle cx="516.0" cy="240.0" r="4" fill="#fbbc04" />
<path d="M 501.0 251.0 h 25" stroke="#4285f4" stroke-width="3" />
<text x="500" y="283" text-anchor="middle" font-family="DejaVu Sans, Arial, sans-serif" font-size="17" font-weight="700" fill="#171923"><tspan x="500" dy="0">Caption</tspan><tspan x="500" dy="21.25">Agent</tspan></text>
<text x="500" y="338" text-anchor="middle" font-family="DejaVu Sans, Arial, sans-serif" font-size="13" font-weight="700" fill="#171923"><tspan x="500" dy="0">1 · Caption paired</tspan><tspan x="500" dy="16.25">event-stream evidence</tspan></text>
<path d="M 595 255 H 635" fill="none" stroke="#25344a" stroke-width="3" marker-end="url(#arrow)" />
<rect x="635" y="197" width="190" height="116" rx="22" fill="#cceca0" />
<polygon points="693.0,228.0 698.2,240.8 711.0,246.0 698.2,251.2 693.0,264.0 687.8,251.2 675.0,246.0 687.8,240.8" fill="url(#geminiGradient)" />
<rect x="723.0" y="229.0" width="42" height="32" rx="5" fill="#fff" stroke="#355070" stroke-width="2" />
<circle cx="734.0" cy="240.0" r="4" fill="#34a853" />
<circle cx="746.0" cy="240.0" r="4" fill="#fbbc04" />
<path d="M 731.0 251.0 h 25" stroke="#4285f4" stroke-width="3" />
<text x="730" y="283" text-anchor="middle" font-family="DejaVu Sans, Arial, sans-serif" font-size="17" font-weight="700" fill="#171923"><tspan x="730" dy="0">Question</tspan><tspan x="730" dy="21.25">Agent</tspan></text>
<text x="730" y="338" text-anchor="middle" font-family="DejaVu Sans, Arial, sans-serif" font-size="13" font-weight="700" fill="#171923"><tspan x="730" dy="0">2 · Generate an event-oriented</tspan><tspan x="730" dy="16.25">question from the caption</tspan></text>
<path d="M 825 255 H 865" fill="none" stroke="#25344a" stroke-width="3" marker-end="url(#arrow)" />
<rect x="865" y="197" width="190" height="116" rx="22" fill="#ffc9d3" />
<polygon points="923.0,228.0 928.2,240.8 941.0,246.0 928.2,251.2 923.0,264.0 917.8,251.2 905.0,246.0 917.8,240.8" fill="url(#geminiGradient)" />
<rect x="953.0" y="229.0" width="42" height="32" rx="5" fill="#fff" stroke="#355070" stroke-width="2" />
<circle cx="964.0" cy="240.0" r="4" fill="#34a853" />
<circle cx="976.0" cy="240.0" r="4" fill="#fbbc04" />
<path d="M 961.0 251.0 h 25" stroke="#4285f4" stroke-width="3" />
<text x="960" y="283" text-anchor="middle" font-family="DejaVu Sans, Arial, sans-serif" font-size="17" font-weight="700" fill="#171923"><tspan x="960" dy="0">Answering</tspan><tspan x="960" dy="21.25">Agent</tspan></text>
<text x="960" y="338" text-anchor="middle" font-family="DejaVu Sans, Arial, sans-serif" font-size="13" font-weight="700" fill="#171923"><tspan x="960" dy="0">3 · Answer using paired</tspan><tspan x="960" dy="16.25">day/night Event frames</tspan></text>
<path d="M 1055 255 H 1195" fill="none" stroke="#25344a" stroke-width="3" marker-end="url(#arrow)" />
<rect x="1195" y="184" width="205" height="142" rx="22" fill="#d8efcf" stroke="#579353" stroke-width="2" />
<path d="M 1235 205 H 1360 V 296 H 1235 Z" fill="#ffffff" stroke="#579353" stroke-width="2" />
<path d="M 1250 228 H 1345 M 1250 249 H 1329 M 1250 270 H 1339" stroke="#74a36f" stroke-width="5" />
<text x="1297" y="357" text-anchor="middle" font-family="DejaVu Sans, Arial, sans-serif" font-size="18" font-weight="700" fill="#171923">Event QA pairs</text>
<rect x="210" y="452" width="1030" height="35" rx="16" fill="#ffffff" stroke="#c29a48" stroke-width="1.3" />
<text x="725" y="475" text-anchor="middle" font-family="DejaVu Sans, Arial, sans-serif" font-size="14" font-weight="700" fill="#5f4b26">Prompt focus: event activity, motion, temporal changes, counting, navigation, actions, and unusual events</text>
</svg>