<svg xmlns="http://www.w3.org/2000/svg" width="1920" height="1080" viewBox="0 0 1920 1080">
<rect width="1920" height="1080" fill="#F7F9FC"/>
<style>text{font-family:DejaVu Sans,Arial,sans-serif;fill:#172033}</style>
<text x="110" y="105" font-size="52" font-weight="700">30-Frame Aligned 4B Benchmark — Main Results</text>
<text x="110" y="155" font-size="25" fill="#64748B">Automatic answer metrics and LLM-as-a-judge accuracy · higher is better</text>
<rect x="112" y="186" width="28" height="28" rx="6" fill="#2563EB"/>
<text x="152" y="208" font-size="24">Qwen3-VL-4B</text>
<rect x="402" y="186" width="28" height="28" rx="6" fill="#F59E0B"/>
<text x="442" y="208" font-size="24">InternVL2.5-4B</text>
<rect x="692" y="186" width="28" height="28" rx="6" fill="#10B981"/>
<text x="732" y="208" font-size="24">Molmo2-4B</text>
<line x1="150" y1="895.0" x2="1770" y2="895.0" stroke="#D9E1EC" stroke-width="2"/>
<text x="128" y="903.0" text-anchor="end" font-size="22" fill="#64748B">0.0</text>
<line x1="150" y1="793.3" x2="1770" y2="793.3" stroke="#D9E1EC" stroke-width="2"/>
<text x="128" y="801.3" text-anchor="end" font-size="22" fill="#64748B">0.1</text>
<line x1="150" y1="691.7" x2="1770" y2="691.7" stroke="#D9E1EC" stroke-width="2"/>
<text x="128" y="699.7" text-anchor="end" font-size="22" fill="#64748B">0.2</text>
<line x1="150" y1="590.0" x2="1770" y2="590.0" stroke="#D9E1EC" stroke-width="2"/>
<text x="128" y="598.0" text-anchor="end" font-size="22" fill="#64748B">0.3</text>
<line x1="150" y1="488.3" x2="1770" y2="488.3" stroke="#D9E1EC" stroke-width="2"/>
<text x="128" y="496.3" text-anchor="end" font-size="22" fill="#64748B">0.5</text>
<line x1="150" y1="386.7" x2="1770" y2="386.7" stroke="#D9E1EC" stroke-width="2"/>
<text x="128" y="394.7" text-anchor="end" font-size="22" fill="#64748B">0.6</text>
<line x1="150" y1="285.0" x2="1770" y2="285.0" stroke="#D9E1EC" stroke-width="2"/>
<text x="128" y="293.0" text-anchor="end" font-size="22" fill="#64748B">0.7</text>
<line x1="150" y1="285" x2="150" y2="895" stroke="#94A3B8" stroke-width="3"/>
<line x1="150" y1="895" x2="1770" y2="895" stroke="#94A3B8" stroke-width="3"/>
<rect x="226.5" y="483.1" width="72" height="411.9" rx="10" fill="#2563EB"/>
<text x="262.5" y="470.1" text-anchor="middle" font-size="21" font-weight="700">0.473</text>
<rect x="316.5" y="679.0" width="72" height="216.0" rx="10" fill="#F59E0B"/>
<text x="352.5" y="666.0" text-anchor="middle" font-size="21" font-weight="700">0.248</text>
<rect x="406.5" y="525.4" width="72" height="369.6" rx="10" fill="#10B981"/>
<text x="442.5" y="512.4" text-anchor="middle" font-size="21" font-weight="700">0.424</text>
<text x="352.5" y="943" text-anchor="middle" font-size="27" font-weight="600">BLEU-4</text>
<rect x="631.5" y="623.6" width="72" height="271.4" rx="10" fill="#2563EB"/>
<text x="667.5" y="610.6" text-anchor="middle" font-size="21" font-weight="700">0.311</text>
<rect x="721.5" y="690.0" width="72" height="205.0" rx="10" fill="#F59E0B"/>
<text x="757.5" y="677.0" text-anchor="middle" font-size="21" font-weight="700">0.235</text>
<rect x="811.5" y="693.2" width="72" height="201.8" rx="10" fill="#10B981"/>
<text x="847.5" y="680.2" text-anchor="middle" font-size="21" font-weight="700">0.232</text>
<text x="757.5" y="943" text-anchor="middle" font-size="27" font-weight="600">ROUGE-L</text>
<rect x="1036.5" y="751.9" width="72" height="143.1" rx="10" fill="#2563EB"/>
<text x="1072.5" y="738.9" text-anchor="middle" font-size="21" font-weight="700">0.164</text>
<rect x="1126.5" y="711.0" width="72" height="184.0" rx="10" fill="#F59E0B"/>
<text x="1162.5" y="698.0" text-anchor="middle" font-size="21" font-weight="700">0.211</text>
<rect x="1216.5" y="801.5" width="72" height="93.5" rx="10" fill="#10B981"/>
<text x="1252.5" y="788.5" text-anchor="middle" font-size="21" font-weight="700">0.107</text>
<text x="1162.5" y="943" text-anchor="middle" font-size="27" font-weight="600">METEOR</text>
<rect x="1441.5" y="405.5" width="72" height="489.5" rx="10" fill="#2563EB"/>
<text x="1477.5" y="392.5" text-anchor="middle" font-size="21" font-weight="700">0.562</text>
<rect x="1531.5" y="444.5" width="72" height="450.5" rx="10" fill="#F59E0B"/>
<text x="1567.5" y="431.5" text-anchor="middle" font-size="21" font-weight="700">0.517</text>
<rect x="1621.5" y="499.4" width="72" height="395.6" rx="10" fill="#10B981"/>
<text x="1657.5" y="486.4" text-anchor="middle" font-size="21" font-weight="700">0.454</text>
<text x="1567.5" y="943" text-anchor="middle" font-size="27" font-weight="600">Judge strict</text>
<rect x="1235" y="177" width="535" height="82" rx="18" fill="#E8F0FF"/>
<text x="1502" y="212" text-anchor="middle" font-size="23" font-weight="700" fill="#1D4ED8">Best overall: Qwen3-VL-4B</text>
<text x="1502" y="243" text-anchor="middle" font-size="19" fill="#475569">Highest BLEU, ROUGE-L, and judge accuracy</text>
</svg>